<?xml version="1.0" encoding="UTF-8" standalone="no"?>
<!-- Created with Inkscape (http://www.inkscape.org/) -->

<svg
   xmlns:dc="http://purl.org/dc/elements/1.1/"
   xmlns:cc="http://creativecommons.org/ns#"
   xmlns:rdf="http://www.w3.org/1999/02/22-rdf-syntax-ns#"
   xmlns:svg="http://www.w3.org/2000/svg"
   xmlns="http://www.w3.org/2000/svg"
   xmlns:sodipodi="http://sodipodi.sourceforge.net/DTD/sodipodi-0.dtd"
   xmlns:inkscape="http://www.inkscape.org/namespaces/inkscape"
   version="1.1"
   id="svg3802"
   xml:space="preserve"
   width="815.96222"
   height="1055.9622"
   viewBox="0 0 815.96222 1055.9622"
   sodipodi:docname="bddowningjennings_resume.svg"
   inkscape:version="0.92.3 (unknown)"><metadata
     id="metadata3808"><rdf:RDF><cc:Work
         rdf:about=""><dc:format>image/svg+xml</dc:format><dc:type
           rdf:resource="http://purl.org/dc/dcmitype/StillImage" /><dc:title></dc:title></cc:Work></rdf:RDF></metadata><defs
     id="defs3806"><clipPath
       clipPathUnits="userSpaceOnUse"
       id="clipPath3818"><path
         d="M 0,0 H 612 V 792 H 0 Z"
         id="path3816"
         inkscape:connector-curvature="0"
         style="clip-rule:evenodd" /></clipPath></defs><sodipodi:namedview
     pagecolor="#ffffff"
     bordercolor="#666666"
     borderopacity="1"
     objecttolerance="10"
     gridtolerance="10"
     guidetolerance="10"
     inkscape:pageopacity="0"
     inkscape:pageshadow="2"
     inkscape:window-width="1920"
     inkscape:window-height="1053"
     id="namedview3804"
     showgrid="false"
     inkscape:zoom="0.80495309"
     inkscape:cx="407.98111"
     inkscape:cy="527.98108"
     inkscape:window-x="0"
     inkscape:window-y="27"
     inkscape:window-maximized="1"
     inkscape:current-layer="g3810" /><g
     id="g3810"
     inkscape:groupmode="layer"
     inkscape:label="bddowningjennings_resume"
     transform="matrix(1.3333333,0,0,-1.3333333,0,1055.9622)"><g
       id="g3812"><g
         id="g3814"
         clip-path="url(#clipPath3818)"><g
           id="g3820"><text
             transform="matrix(1,0,0,-1,65,719)"
             style="font-variant:normal;font-weight:bold;font-size:18px;font-family:'DejaVu Sans';-inkscape-font-specification:DejaVuSans-Bold;writing-mode:lr-tb;fill:#000000;fill-opacity:1;fill-rule:nonzero;stroke:none"
             id="text3824"><tspan
               x="0 13.698 19.872 31.968 44.765999 56.970001 63.251999 78.155998 85.031998 91.314003 106.218 118.602 135.198 147.996 154.17 166.968 179.76601 187.254 193.95 206.15401 218.952 231.75 237.924 250.722 263.60999 274.302 281.59201 287.784 300.76199 313.056 319.23001 332.02802 340.63199 346.806 359.19 371.98801 378.26999 393.17401 405.37799 417.078 429.28201 435.45599 447.84 460.728 472.93201"
               y="0"
               sodipodi:role="line"
               id="tspan3822">Blane D. Downing-Jennings: Solution Developer</tspan></text>
</g><g
           id="g3826"><text
             transform="matrix(0.96592805,0,-0.25881076,-0.96592805,67.8,705.1)"
             style="font-variant:normal;font-weight:normal;font-size:10.87037468px;font-family:'DejaVu Sans';-inkscape-font-specification:DejaVuSans;writing-mode:lr-tb;fill:#000000;fill-opacity:1;fill-rule:nonzero;stroke:none"
             id="text3830"><tspan
               x="0 3.0002234 6.0004468 12.924876 18.718786 25.436678 32.361107 35.361328 42.285759 45.699055 51.688633 58.319561 68.874695 72.592361 75.59259 82.517014 86.136848 92.974319 99.898743 106.82317 113.4541 122.34607 129.27049 132.27072 139.10818 146.03262 149.03284 155.75073 162.5882 169.51262 172.51285 179.43727 186.27475 191.95995 195.47108 200.85191 204.36305 211.20052 218.12494 225.04938 231.6803 240.48531 247.40973 250.40996 257.33438 264.25882 267.16119 273.87909 280.80353 287.72797 290.63034 297.55478 304.47919 310.1644 314.08862 320.92609 327.64398 333.23135 336.64465 343.56906 346.56931 350.80875 357.64621 364.57065 371.49506 374.90836 377.90857 384.62646 388.03976 393.51843 396.93173 403.64963 406.64984 413.28079 420.2052 426.83615 433.76056 438.00003 443.68521 450.31616 457.24057 463.14319 469.86108 473.27438 479.78574 486.19925"
               y="0"
               sodipodi:role="line"
               id="tspan3828">linkedin.com/in/bddowningjennings – bddowningjennings-dev.github.io – elegantsauce.xyz</tspan></text>
</g><g
           id="g3832"><text
             transform="matrix(1,0,0,-1,140.2,692.9)"
             style="font-variant:normal;font-weight:normal;font-size:10.5px;font-family:'DejaVu Sans';-inkscape-font-specification:DejaVuSans;writing-mode:lr-tb;fill:#000000;fill-opacity:1;fill-rule:nonzero;stroke:none"
             id="text3836"><tspan
               x="0 7.2975001 13.7025 20.391001 24.486 30.891001 36.676498 40.7715 44.362499 47.6595 51.754501 58.443001 65.1315 71.82 75.915001 79.211998 85.900497 92.588997 99.277496 103.068 109.6725 116.361 123.0495 129.73801 133.035"
               y="0"
               sodipodi:role="line"
               id="tspan3834">Contact: (530) 488-9748 -</tspan></text>
</g><g
           id="g3838"><text
             transform="matrix(0.96592805,0,-0.25881076,-0.96592805,280.6915,692.9)"
             style="font-variant:normal;font-weight:normal;font-size:10.87037468px;font-family:'DejaVu Sans';-inkscape-font-specification:DejaVuSans;writing-mode:lr-tb;fill:#000000;fill-opacity:1;fill-rule:nonzero;stroke:none"
             id="text3842"><tspan
               x="0 6.8374658 13.761894 20.686323 27.317253 36.122257 43.046684 46.046909 52.971336 59.895767 62.895988 69.526917 76.451347 83.375778 86.375999 93.213463 100.13789 105.8231 109.2364 116.16083 122.87872 129.29224 140.05391 146.97833 157.53348 164.25136 167.25159 170.25182 173.66512 179.65469 186.28561"
               y="0"
               sodipodi:role="line"
               id="tspan3840">bddowningjennings.dev@gmail.com</tspan></text>
</g><g
           id="g3844"><text
             transform="matrix(0.96592805,0,-0.25881076,-0.96592805,82.1,675.5)"
             style="font-variant:normal;font-weight:normal;font-size:10.87037468px;font-family:'DejaVu Sans';-inkscape-font-specification:DejaVuSans;writing-mode:lr-tb;fill:#000000;fill-opacity:1;fill-rule:nonzero;stroke:none"
             id="text3848"><tspan
               x="0 3.1958902 6.1852431 16.740377 20.153675 23.153898 29.784828 36.415756 42.720573 45.720798 52.645226 59.569656 63.080784 67.320229 73.951164 77.364456 83.995384 90.919815 96.605019 105.49699 112.21488 116.67174 120.08503 127.00946 133.6404 142.53235 146.04349 152.67442 159.51189 166.43631 173.06725 177.52409 181.76353 188.68797 195.6124 198.61263 202.85207 205.85229 212.57018 218.25539 221.66869 228.29961 235.22404 242.14847 245.56177 249.80121 256.43216 262.11734 268.74829 271.7485 278.16202 284.87991 288.39105 295.22852 301.94641 310.83838 314.25168 320.24124 327.16568 333.7966 336.79681 339.79706 346.42798 353.35242 360.27682 366.90778 372.59296 376.31064 379.72394 383.96338 390.68127 394.09457 400.93204 403.93225 407.0303 410.4436 417.07455 420.58566 424.82513 431.45605 434.45627 441.17416 444.58746 453.39246 460.31689 463.31711 469.3067"
               y="0"
               sodipodi:role="line"
               id="tspan3846">I'm looking to answer new opportunities and resolve new challenges; to fll a role which</tspan></text>
</g><g
           id="g3850"><text
             transform="matrix(0.96592805,0,-0.25881076,-0.96592805,75,663.3)"
             style="font-variant:normal;font-weight:normal;font-size:10.87037468px;font-family:'DejaVu Sans';-inkscape-font-specification:DejaVuSans;writing-mode:lr-tb;fill:#000000;fill-opacity:1;fill-rule:nonzero;stroke:none"
             id="text3854"><tspan
               x="0 6.6309285 9.6311522 12.729209 19.360138 28.252104 33.937309 37.350609 47.905743 54.623634 58.03693 62.276379 68.99427 72.40757 82.9627 89.593628 95.496246 102.32284 105.73614 109.97559 116.60651 123.23744 126.23766 131.92287 135.43401 143.91289 147.32619 153.0114 159.64232 162.64255 169.05608 175.77396 179.18726 186.11169 190.35114 196.98207 203.90649 206.90672 213.6246 224.17975 229.86494 233.27824 236.69154 242.68112 249.60555 256.23648 259.23669 262.23694 268.9548 275.79227 282.71671 289.34763 295.03284 298.54398 309.09912 315.81702 319.23029 323.46976 330.18765 333.60092 339.59052 346.22144 353.0589 358.74411 362.98355 369.6145 376.53891 380.77835 383.77859 390.28995 393.70325 400.62766 407.25861 410.76971 413.76996 424.32507 431.24951 435.48895 442.1199 448.53342 451.53363 458.45807 465.38248 468.79578"
               y="0"
               sodipodi:role="line"
               id="tspan3852">allows me to make tools &amp; solve problems, challenges me to constantly be improving &amp;</tspan></text>
</g><g
           id="g3856"><text
             transform="matrix(0.96592805,0,-0.25881076,-0.96592805,80.1,651)"
             style="font-variant:normal;font-weight:normal;font-size:10.87037468px;font-family:'DejaVu Sans';-inkscape-font-specification:DejaVuSans;writing-mode:lr-tb;fill:#000000;fill-opacity:1;fill-rule:nonzero;stroke:none"
             id="text3860"><tspan
               x="0 6.8374658 11.076912 17.70784 26.599808 29.600031 36.52446 43.448887 46.862186 53.493114 60.417545 67.341972 70.755272 77.3862 80.386421 86.071625 92.78952 96.20282 102.92071 109.75818 115.74775 122.37868 129.30312 133.75996 140.39088 147.31532 153.94624 159.63145 163.14259 173.69772 180.41562 183.8289 188.06836 194.69928 198.21042 205.04788 211.76578 215.17908 219.41852 226.34294 233.06084 236.47414 245.3661 251.99702 256.34518 266.90033 270.3136 278.79251 282.30365 289.14111 296.06552 306.62067 313.25159 317.49103 324.12198 331.04639 336.7316 340.1449 343.65604 350.4935 357.2114 362.89661 367.13605 370.54935 376.96286 383.68076 388.1376 393.82281 396.82303 403.45398 410.37839 413.79169 420.42261 424.24899 427.76013 438.31525 444.72879 450.31616 457.03406 460.03427 463.14319"
               y="0"
               sodipodi:role="line"
               id="tspan3858">growing and also encourages me to be the warm &amp; humorous, best version of myself.</tspan></text>
</g><g
           id="g3862"><text
             transform="matrix(1,0,0,-1,56.8,632.3)"
             style="font-variant:normal;font-weight:bold;font-size:12px;font-family:'DejaVu Sans';-inkscape-font-specification:DejaVuSans-Bold;writing-mode:lr-tb;fill:#000000;fill-opacity:1;fill-rule:nonzero;stroke:none"
             id="text3866"><tspan
               x="0 8.6040001 17.892 22.379999 29.976 37.667999 46.271999 50.459999 60.948002 65.052002 73.236 83.435997 93.636002 101.328 109.932 118.308 123.792 131.388 139.884 143.98801 148.092 153.084 161.688 167.388 175.57201 182.67599 190.668 194.856 207.66 215.75999 224.35201 228.936 233.03999 243.024 251.12399 258.228 266.22 272.004 280.20001 288.79199 292.98001 302.26801 310.76401 316.548 324.74399 337.23599 345.32401 351.02399 355.12799 363.42001 371.91599 376.5 380.68799 392.59201 400.78799 409.38 417.564 421.668 425.772 434.26801 442.85999 448.34399"
               y="0"
               sodipodi:role="line"
               id="tspan3864">SKILLS &amp; TOOLS (Full-Stack Web, Desktop Automation, Modeling) </tspan></text>
</g><g
           id="g3868"
           transform="translate(56.8,632.3)"><path
             d="M 0,-1.2 H 494.7"
             style="fill:none;stroke:#000000;stroke-width:0.69999999;stroke-linecap:butt;stroke-linejoin:miter;stroke-miterlimit:10;stroke-dasharray:none;stroke-opacity:1"
             id="path3870"
             inkscape:connector-curvature="0" /></g><g
           id="g3872"><text
             transform="matrix(1,0,0,-1,92.8,619.4)"
             style="font-variant:normal;font-weight:normal;font-size:10.80000019px;font-family:'DejaVu Sans';-inkscape-font-specification:DejaVuSans;writing-mode:lr-tb;fill:#000000;fill-opacity:1;fill-rule:nonzero;stroke:none"
             id="text3876"><tspan
               x="0 6.8903999 11.0916 17.690399 24.580799 27.572399 34.1712 44.6688 48.556801 54.161999 60.760799 63.752399 70.146004 73.137604 79.941597 86.832001 91.216797 94.618797 98.020798 104.9112 111.51 117.1152 124.0056 127.602 133.29359 138.8988 145.7892 149.19119 154.7964 160.69321 165.08881 168.0804 174.97079 179.172 182.2608 189.0648 195.9552 199.35719 202.8456 209.3472 215.7408 219.942 226.746 233.3448 240.2352 243.63721 247.1256 253.3248 256.31641 262.91519 268.52039 274.806 278.20801 281.60999 289.91519 292.9068 299.59201 306.396 313.28641 319.88519 323.2872 326.68921 335.98801 343.37521 350.96759 354.3696 357.858 361.04401 367.54559 373.93921 380.53799 387.42841 393.42239 397.81799 400.8096 407.70001 411.90121 415.30319 418.7916 426.7944 433.39319 440.2836 446.88239 450.28439 453.3732 458.97839"
               y="0"
               sodipodi:role="line"
               id="tspan3874">problem-solving!, bash/zsh scripting, Python, Flask, Django, MVC, JavaScript, Node.js,</tspan></text>
</g><g
           id="g3878"><text
             transform="matrix(1,0,0,-1,122.8,606.8)"
             style="font-variant:normal;font-weight:normal;font-size:10.80000019px;font-family:'DejaVu Sans';-inkscape-font-specification:DejaVuSans;writing-mode:lr-tb;fill:#000000;fill-opacity:1;fill-rule:nonzero;stroke:none"
             id="text3882"><tspan
               x="0 7.3871999 14.1912 21.0816 27.885599 30.877199 37.476002 41.9688 45.3708 48.7728 55.771198 62.456402 69.055199 74.952003 79.239601 82.641602 86.129997 93.128403 99.727203 106.6176 113.4216 119.8152 123.2172 126.7056 134.8056 141.3936 150.6924 156.6972 163.5876 166.98959 170.478 177.97321 184.77721 191.6676 195.15601 198.558 207.8568 214.4556 218.8512 225.1368 232.02721 238.62601 247.42799 254.31841 257.7204 261.12241 270.4212 277.10641 283.9104 290.80081 297.3996 305.7048 313.10281 316.50479 319.99319 326.09521 332.694 338.29919 342.5004 349.39081 353.59201 360.1908 367.08121 375.58081 381.5856 385.07401 388.47601 397.77481 404.1684 411.05881 419.55841 425.5632 428.96521"
               y="0"
               sodipodi:role="line"
               id="tspan3880">Angular, React, Redux, HTML5, CSS, Markdown, MongoDB, PostgreSQL, MySQL, </tspan></text>
</g><g
           id="g3884"><text
             transform="matrix(1,0,0,-1,86.5,594.2)"
             style="font-variant:normal;font-weight:normal;font-size:10.80000019px;font-family:'DejaVu Sans';-inkscape-font-specification:DejaVuSans;writing-mode:lr-tb;fill:#000000;fill-opacity:1;fill-rule:nonzero;stroke:none"
             id="text3888"><tspan
               x="0 6.8039999 15.3036 21.3948 24.796801 31.687201 38.285999 42.681599 49.075199 55.760399 60.155998 63.557999 67.046402 73.850403 81.345596 88.236 91.638 95.126404 101.9304 108.8208 111.8124 118.6164 125.01 128.412 131.90041 139.3956 146.1996 153.09 159.67799 163.08 166.48199 173.37241 177.76801 184.36681 191.2572 198.0612 206.56081 212.5656 216.054 219.45599 226.34641 232.146 239.5332 242.9352 246.4236 253.5192 256.5108 262.116 269.00641 275.60519 278.5968 281.99881 289.39679 295.99561 301.6008 304.68961 310.5864 314.0748 317.47681 324.97198 334.06561 343.06201 346.55042 349.95239 357.3396 364.73761 372.12479 375.72119 385.01999 391.9104 395.31241 402.71039 405.89639 409.3848 417.69 424.28879 428.48999 435.1752 438.57721 443.37241 449.97119 456.57001 459.56161 465.16681"
               y="0"
               sodipodi:role="line"
               id="tspan3886">SQL Server, EC2, nginx, REST, graphQL, SPA, Visual Basic, C++, VBA/MS BI Data Tools,</tspan></text>
</g><g
           id="g3890"><text
             transform="matrix(1,0,0,-1,145.9,581.6)"
             style="font-variant:normal;font-weight:normal;font-size:10.80000019px;font-family:'DejaVu Sans';-inkscape-font-specification:DejaVuSans;writing-mode:lr-tb;fill:#000000;fill-opacity:1;fill-rule:nonzero;stroke:none"
             id="text3894"><tspan
               x="0 6.0047998 12.69 19.493999 26.384399 32.9832 38.588402 41.990398 45.478802 52.4772 59.2812 66.1716 72.565201 75.967201 79.455597 86.659203 93.258003 96.249603 99.241203 104.8464 108.3348 111.7368 118.2384 124.8372 131.7276 136.2204 142.8192 149.6232 153.9108 157.31281 160.80119 167.0976 173.98801 180.8784 187.6824 194.2812 198.48241 205.1676 208.5696 212.058 220.06081 226.9512 234.3492 237.75121 241.23959 248.6268 255.3228 262.2132 266.4144 273.01321 276.00479 282.8952 286.29721 293.18759 297.38879 304.19281 311.08319 314.0748 320.67361 324.16199 327.564 336.86279 343.36441 349.95239 356.23801 363.62521 371.02319 374.5116 377.9136 383.9184 390.51721 395.31241 401.91119"
               y="0"
               sodipodi:role="line"
               id="tspan3892">Pandas, Ruby, Rails, Vagrant, vSphere, NSX, Android Studio, MATLAB, LaTeX</tspan></text>
</g><g
           id="g3896"><text
             transform="matrix(1,0,0,-1,56.8,560.3)"
             style="font-variant:normal;font-weight:bold;font-size:12px;font-family:'DejaVu Sans';-inkscape-font-specification:DejaVuSans-Bold;writing-mode:lr-tb;fill:#000000;fill-opacity:1;fill-rule:nonzero;stroke:none"
             id="text3900"><tspan
               x="0 9.2040005 17.4 26.195999 34.391998 44.388 52.68 56.784 65.568001 74.772003 84.972 93.167999 101.364 109.56 118.164 122.652 132.85201 142.84801 152.136 159.73199 163.92 172.116 181.40401 190.188 198.384 207.588 212.076 220.272 230.26801 239.064 247.25999"
               y="0"
               sodipodi:role="line"
               id="tspan3898">RECENT PROFESSIONAL EXPERIENCE </tspan></text>
</g><g
           id="g3902"
           transform="translate(56.8,560.3)"><path
             d="M 0,-1.2 H 497.9"
             style="fill:none;stroke:#000000;stroke-width:0.69999999;stroke-linecap:butt;stroke-linejoin:miter;stroke-miterlimit:10;stroke-dasharray:none;stroke-opacity:1"
             id="path3904"
             inkscape:connector-curvature="0" /></g><g
           id="g3906"><text
             transform="matrix(1,0,0,-1,56.8,541.2)"
             style="font-variant:normal;font-weight:normal;font-size:12px;font-family:'DejaVu Sans';-inkscape-font-specification:DejaVuSans;writing-mode:lr-tb;fill:#000000;fill-opacity:1;fill-rule:nonzero;stroke:none"
             id="text3910"><tspan
               x="0 7.5960002 14.796 18.384001 22.188 29.784 39.18 45.276001 54.060001 61.355999 64.944 74.339996 83.328003"
               y="0"
               sodipodi:role="line"
               id="tspan3908">SPJ SOLUTIONS</tspan></text>
</g><g
           id="g3912"><text
             transform="matrix(1,0,0,-1,322.924,541.2)"
             style="font-variant:normal;font-weight:normal;font-size:12px;font-family:'DejaVu Sans';-inkscape-font-specification:DejaVuSans;writing-mode:lr-tb;fill:#000000;fill-opacity:1;fill-rule:nonzero;stroke:none"
             id="text3916"><tspan
               x="0 7.5840001 10.884 14.688 23.976 31.271999 36.167999 43.560001 51.155998 58.548 62.352001 71.351997 74.652 78.036003 81.335999 87.624001 91.428001 95.232002 103.62 111.816 119.424 123.516 127.32 137.616 144.912 152.20799 156.01199 163.70399 171.3 175.104 181.104 184.908 193.104 201.888 211.17599 215.064 222.66"
               y="0"
               sodipodi:role="line"
               id="tspan3914">El Dorado Hills, CA : MAY 18 – AUG 18</tspan></text>
</g><g
           id="g3918"><text
             transform="matrix(0.96592805,0,-0.25881076,-0.96592805,56.8,527.2)"
             style="font-variant:normal;font-weight:bold;font-size:12.42328548px;font-family:'DejaVu Sans';-inkscape-font-specification:DejaVuSans-Bold;writing-mode:lr-tb;fill:#000000;fill-opacity:1;fill-rule:nonzero;stroke:none"
             id="text3922"><tspan
               x="0 8.9074955 17.392599 22.871269 28.772329 40.251446 48.624741 54.736996 63.209679 67.458443 75.943542 84.739235 93.6343 97.970032 106.76572 115.2384 123.62411"
               y="0"
               sodipodi:role="line"
               id="tspan3920">Software Engineer</tspan></text>
</g><g
           id="g3924"><text
             transform="matrix(1,0,0,-1,56.8,509.1)"
             style="font-variant:normal;font-weight:normal;font-size:10.5px;font-family:'DejaVu Sans';-inkscape-font-specification:DejaVuSans;writing-mode:lr-tb;fill:#000000;fill-opacity:1;fill-rule:nonzero;stroke:none"
             id="text3928"><tspan
               x="0 6.6884999 12.9885 16.0755 19.372499 26.061001 32.466 35.363998 42.052502 46.147499 49.045502 55.4505 62.139 67.630501 70.927498 73.8255 79.317001 82.613998 89.018997 95.707497 99.098999 101.9025 108.591 112.287 118.776 122.871 133.0665 139.4715 143.5665 146.55901 152.964 159.6525 162.94949 167.04449 173.53349 179.235 185.92349 192.612 199.017 201.91499 208.32001 215.0085 221.20351 224.595 230.38049 236.78551 246.981 253.66949 260.07449 266.763 272.95801 276.255 279.95099 286.35599 292.14151 298.746 304.23749 307.1355 313.82401 320.51251 323.80951 330.21451 336.90302 340.29449 346.69949 356.89499 363.384 367.479 374.16751 377.06549 383.67001 390.35849 393.75 397.845 404.25 410.03549 416.64001 423.32849 429.73349 432.72601 439.13101 445.81949 448.7175 455.1225 460.61401"
               y="0"
               sodipodi:role="line"
               id="tspan3926">SPJ Solutions is an information technology company focusing on emerging technologies </tspan></text>
</g><g
           id="g3930"><text
             transform="matrix(1,0,0,-1,56.8,496.4)"
             style="font-variant:normal;font-weight:normal;font-size:10.5px;font-family:'DejaVu Sans';-inkscape-font-specification:DejaVuSans;writing-mode:lr-tb;fill:#000000;fill-opacity:1;fill-rule:nonzero;stroke:none"
             id="text3934"><tspan
               x="0 6.4050002 10.5 16.905001 23.509501 30.198 36.886501 40.183498 44.2785 50.966999 57.456001 60.752998 67.441498 73.846497 77.343002 81.438004 90.027 96.431999 100.527 107.016 110.313 118.398 124.887 131.4915 138.09599 144.58501 151.2735 154.5705 162.6555 169.0605 173.1555 179.6445 182.9415 190.239 196.728 203.4165 207.51151 214.0005 218.3055 221.60249 228.00751 234.696 241.38451 244.6815 251.685 254.58299 258.888 262.983 269.67151 276.07651 278.97449 282.366 290.16751 296.65649 300.7515 309.34052 315.74551 320.05051 326.1405 329.03851 335.72699 342.4155 345.71249 349.00949 352.0965 358.785 362.082 372.2775 378.56699 381.86401 385.95901 392.36401 395.26199 401.75101 405.14249 411.54749 417.039 420.336 427.02451 433.4295 436.92599 441.021 449.60999 456.01501 460.10999 466.599"
               y="0"
               sodipodi:role="line"
               id="tspan3932">around the Software Defned Data Center and Virtual Networking. In my role as Software </tspan></text>
</g><g
           id="g3936"><text
             transform="matrix(1,0,0,-1,56.8,483.7)"
             style="font-variant:normal;font-weight:normal;font-size:10.5px;font-family:'DejaVu Sans';-inkscape-font-specification:DejaVuSans;writing-mode:lr-tb;fill:#000000;fill-opacity:1;fill-rule:nonzero;stroke:none"
             id="text3940"><tspan
               x="0 6.6044998 13.209 19.897499 22.7955 29.483999 35.889 42.377998 46.682999 50.074501 56.4795 63.167999 66.464996 72.250504 75.337502 79.936501 86.341499 93.029999 99.634499 105.126 108.5175 112.6125 119.0175 122.409 126.0105 132.69901 135.597 138.495 142.28551 147.77699 151.87199 158.27699 164.0625 170.1525 173.54401 176.841 179.739 185.2305 188.5275 194.019 200.424 203.32201 210.0105 214.1055 217.00349 223.40849 230.097 233.394 237.09 243.495 247.884 251.181 258.3735 267.46649 276.05551 282.46051 286.461 292.95001 296.34149 304.14301 310.83151 318.02399 321.32101 329.51099 332.9025 339.0975 345.702 352.3905 358.995 365.48401 369.57901 376.06799 379.36499 387.05099 390.138 393.63449 400.03949 406.728 410.823 417.31201 427.50751 433.91251 438.00751 440.90549 447.31049 453.99899 458.18851 461.4855 464.57251"
               y="0"
               sodipodi:role="line"
               id="tspan3938">Engineer on cITopus (a full-stack .js solution for VMware NSX &amp; vSphere UI/automation) I </tspan></text>
</g><g
           id="g3942"><text
             transform="matrix(1,0,0,-1,56.8,471)"
             style="font-variant:normal;font-weight:normal;font-size:10.5px;font-family:'DejaVu Sans';-inkscape-font-specification:DejaVuSans;writing-mode:lr-tb;fill:#000000;fill-opacity:1;fill-rule:nonzero;stroke:none"
             id="text3946"><tspan
               x="0 8.5889997 14.994 19.299 25.0005 31.4055 38.094002 41.4855 47.890499 54.578999 57.875999 64.564499 70.969498 75.064499 81.752998 85.050003 90.835503 93.733498 96.6315 103.0365 109.725 113.9145 117.2115 123.6165 130.30499 136.9935 140.2905 145.782 152.187 156.492 162.687 169.17599 173.481 176.8725 182.364 185.1675 191.856 198.345 201.642 204.53999 210.94501 217.6335 220.53149 226.317 229.7085 233.8035 240.2085 243.60001 246.498 256.69351 263.38199 266.18549 272.6745 282.87 289.35901 296.04749 300.14249 303.43951 310.12799 316.73251 323.42099 326.8125 333.41699 339.21301 345.702 351.19351 354.49051 362.68051 366.07199 372.67651 379.1655 387.75449 391.05151 394.7475 401.23651 407.64151 411.73651 418.42499 422.42551 428.91449 434.40601"
               y="0"
               sodipodi:role="line"
               id="tspan3944">worked on both client and server side logic to implement bug fxes &amp; new features.</tspan></text>
</g><g
           id="g3948"><text
             transform="matrix(1,0,0,-1,56.8,455.7)"
             style="font-variant:normal;font-weight:normal;font-size:11px;font-family:'DejaVu Sans';-inkscape-font-specification:DejaVuSans;writing-mode:lr-tb;fill:#000000;fill-opacity:1;fill-rule:nonzero;stroke:none"
             id="text3952"><tspan
               x="0 6.4899998"
               y="0"
               sodipodi:role="line"
               id="tspan3950">• </tspan></text>
</g><g
           id="g3954"><text
             transform="matrix(1,0,0,-1,66.8,455.7)"
             style="font-variant:normal;font-weight:normal;font-size:10.5px;font-family:'DejaVu Sans';-inkscape-font-specification:DejaVuSans;writing-mode:lr-tb;fill:#000000;fill-opacity:1;fill-rule:nonzero;stroke:none"
             id="text3958"><tspan
               x="0 6.1005001 10.1955 16.6005 23.289 26.187 32.675999 42.871498 46.661999 52.1535 58.558498 61.456501 67.651497 74.140503 78.3405 81.637497 88.934998 95.339996 102.0285 107.52 111.615 118.02 124.7085 128.8035 131.70151 137.991 141.28799 144.186 150.675 157.08 161.175 167.86349 171.255 174.85651 178.95151 185.35651 195.6465 198.9435 205.3485 209.4435 216.132 222.621 226.92599 232.4175 235.71449 242.11951 248.808 255.49651 258.79349 261.6915 268.38 274.9845 281.47351 288.078 294.56699 301.25549 307.85999 314.349 321.03751 325.13251 328.03049"
               y="0"
               sodipodi:role="line"
               id="tspan3956">Problem-solve! Constantly learn from others and independently</tspan></text>
</g><g
           id="g3960"><text
             transform="matrix(1,0,0,-1,56.8,442.9)"
             style="font-variant:normal;font-weight:normal;font-size:11px;font-family:'DejaVu Sans';-inkscape-font-specification:DejaVuSans;writing-mode:lr-tb;fill:#000000;fill-opacity:1;fill-rule:nonzero;stroke:none"
             id="text3964"><tspan
               x="0"
               y="0"
               id="tspan3962">•</tspan></text>
</g><g
           id="g3966"><text
             transform="matrix(1,0,0,-1,66.597,442.9)"
             style="font-variant:normal;font-weight:normal;font-size:10.5px;font-family:'DejaVu Sans';-inkscape-font-specification:DejaVuSans;writing-mode:lr-tb;fill:#000000;fill-opacity:1;fill-rule:nonzero;stroke:none"
             id="text3970"><tspan
               x="0 5.9955001 12.4005 17.892 21.987 28.591499 32.686501 39.175499 45.779999 54.064499 59.955002 63.251999 66.643501 73.248001 79.443001 86.1315 90.132004 96.621002 102.1125 107.604 110.901 113.799 119.2905 122.5875 125.979 132.67799 139.16701 145.57201 151.3575 155.547 158.84399 161.742 167.23351 170.5305 178.7205 182.112 188.517 195.12151 201.6105 208.299 211.59599 217.08749 223.49249 230.181 234.1815 239.967 246.45599 249.75301 256.4415 262.8465 268.63199 274.53299 280.93799 287.6265 294.03149 299.52301 302.91449 307.00949 313.41449 316.806 323.41049 330.099 332.99701 335.89499 342.5835 345.88049 351.66599 358.07101 368.26651 374.95499 377.853 384.15302 390.34799 393.7395 400.1445 406.74899 413.4375 416.33551 419.23349 425.01901 431.42401 435.61349 438.51151 444.9165 451.60501"
               y="0"
               sodipodi:role="line"
               id="tspan3968">PostgreSQL, Express.js, React.js &amp; open source packages to build complex applications</tspan></text>
</g><g
           id="g3972"><text
             transform="matrix(1,0,0,-1,56.8,430.1)"
             style="font-variant:normal;font-weight:normal;font-size:11px;font-family:'DejaVu Sans';-inkscape-font-specification:DejaVuSans;writing-mode:lr-tb;fill:#000000;fill-opacity:1;fill-rule:nonzero;stroke:none"
             id="text3976"><tspan
               x="0 6.4899998"
               y="0"
               sodipodi:role="line"
               id="tspan3974">• </tspan></text>
</g><g
           id="g3978"><text
             transform="matrix(1,0,0,-1,66.8,430.1)"
             style="font-variant:normal;font-weight:normal;font-size:10.5px;font-family:'DejaVu Sans';-inkscape-font-specification:DejaVuSans;writing-mode:lr-tb;fill:#000000;fill-opacity:1;fill-rule:nonzero;stroke:none"
             id="text3982"><tspan
               x="0 9.7965002 16.2015 20.5065 26.208 32.612999 39.301498 42.693001 48.993 55.681499 59.073002 66.759003 69.846001 73.142998 76.838997 83.328003 89.733002 93.828003 100.5165 104.517 111.006 116.4975 119.7945 123.8895 130.37849 133.2765 139.4715 142.36951 148.974 155.66251 159.054 165.459 172.14751 175.4445 182.133 188.53799 192.633 201.222 207.627 211.93201 218.1165 221.4135 225.5085 231.9135 238.60201 245.007 247.905 254.31 260.9985 267.28799 270.58499 273.88199 280.5705 284.87549 291.28049 297.96899 301.3605 307.7655 314.37 321.0585 324.45001 331.0545 335.14951 341.5545 348.24301 351.63449 354.93149 365.12701 371.81549 374.7135 378.8085 381.70651 385.49701 390.98849 395.0835 401.48849 405.5835 412.07251 415.46399 425.65948 432.06451 438.75299 445.15799 448.056 453.54749 456.84451 460.5405 466.9455 471.14551 481.341"
               y="0"
               sodipodi:role="line"
               id="tspan3980">Worked on UI features relying on network topology, drag and drop, multi-state modals forms</tspan></text>
</g><g
           id="g3984"><text
             transform="matrix(1,0,0,-1,56.8,417.3)"
             style="font-variant:normal;font-weight:normal;font-size:11px;font-family:'DejaVu Sans';-inkscape-font-specification:DejaVuSans;writing-mode:lr-tb;fill:#000000;fill-opacity:1;fill-rule:nonzero;stroke:none"
             id="text3988"><tspan
               x="0 6.4899998 9.9770002 17.974001 22.275 25.365999 28.368999 31.459999 37.245998 43.945 48.245998 51.337002 58.035999 65.021004 68.508003 75.207001 79.100998 82.587997 89.287003 96.272003 103.059 110.044 113.531 119.229 125.928 132.91299 137.214 143.209 149.996 153.483 156.57401 159.577 166.562 171.061 177.84801 182.347 185.35001 192.13699 197.83501"
               y="0"
               sodipodi:role="line"
               id="tspan3986">• Utilization of open source libraries,</tspan></text>
</g><g
           id="g3990"><text
             transform="matrix(1,0,0,-1,261.797,417.3)"
             style="font-variant:normal;font-weight:normal;font-size:10.5px;font-family:'DejaVu Sans';-inkscape-font-specification:DejaVuSans;writing-mode:lr-tb;fill:#000000;fill-opacity:1;fill-rule:nonzero;stroke:none"
             id="text3994"><tspan
               x="0 7.1925001 13.4925 16.5795 22.070999 25.368 31.773001 38.461498 45.150002 48.446999 55.135502 63.220501 70.024498 75.515999 78.907501 82.6035 89.008499 93.313499 96.705002 102.9 105.798 110.103 114.198 120.8865 127.2915 130.1895 133.08749 138.58949 145.07851 151.767 155.064 161.7525 168.2415 172.3365 180.92551 187.33051 191.6355 197.72549"
               y="0"
               sodipodi:role="line"
               id="tspan3992">APIs and SDKs for virtualized networks</tspan></text>
</g><g
           id="g3996"><text
             transform="matrix(1,0,0,-1,73.474,404.9)"
             style="font-variant:normal;font-weight:normal;font-size:10.5px;font-family:'DejaVu Sans';-inkscape-font-specification:DejaVuSans;writing-mode:lr-tb;fill:#000000;fill-opacity:1;fill-rule:nonzero;stroke:none"
             id="text4000"><tspan
               x="0 4.0949998 6.993 10.29 16.778999 20.076 23.467501 30.156 36.351002 40.351501 47.040001 53.445 60.133499 63.924 69.415497 76.019997 82.509003 85.406998 88.305 91.696503 95.696999 103.5825 109.9875 116.676 123.165 126.462 129.36 134.8515 138.243 141.14101 144.039 150.72749 154.82249 158.11951 161.4165 168.60899 177.702 186.291 192.696 196.6965 203.1855 206.577 214.37849 221.067 228.25951 231.5565 238.74899 245.049 248.241 251.53799 257.94299 264.6315 271.32001 274.617 280.81201 287.50049 294.10501 300.79349 307.2825 311.28299 317.772 321.16351 327.4635 333.65851 337.75351 344.44199 350.84698 357.53549 360.83249 367.521 375.522 382.41"
               y="0"
               sodipodi:role="line"
               id="tspan3998">(i.e. python-shell (Node.js lib), VMware NSX API and vSphere Python SDK)</tspan></text>
</g><g
           id="g4002"><text
             transform="matrix(1,0,0,-1,56.8,392.2)"
             style="font-variant:normal;font-weight:normal;font-size:11px;font-family:'DejaVu Sans';-inkscape-font-specification:DejaVuSans;writing-mode:lr-tb;fill:#000000;fill-opacity:1;fill-rule:nonzero;stroke:none"
             id="text4006"><tspan
               x="0 6.4899998 9.9770002 17.577999 21.879 28.666 35.365002 39.666 46.452999 53.438 56.924999 62.919998 69.707001 80.410004 87.394997 94.094002 99.792 102.883 107.184 110.275 116.974 123.959 129.657 133.144 139.843 143.737 147.224"
               y="0"
               sodipodi:role="line"
               id="tspan4004">• Created compositions of a</tspan></text>
</g><g
           id="g4008"><text
             transform="matrix(1,0,0,-1,211,392.2)"
             style="font-variant:normal;font-weight:normal;font-size:10.5px;font-family:'DejaVu Sans';-inkscape-font-specification:DejaVuSans;writing-mode:lr-tb;fill:#000000;fill-opacity:1;fill-rule:nonzero;stroke:none"
             id="text4012"><tspan
               x="0 5.4914999 11.592 18.2805 24.066 30.754499 34.250999 39.7425 45.842999 52.531502 58.317001 65.005501 69.100502 75.400497 82.088997 88.494003 95.182503 100.674 103.971 107.667 114.2715 120.96 126.7455 130.8405 133.73849 140.14349 146.832 152.3235 155.6205 159.3165 165.7215 170.1105 173.4075 179.19299 185.59801 195.7935 202.48199 205.38 211.67999 217.875 221.26649 226.6635 233.1525 237.4575 243.6525 250.14149 254.4465 257.7435 264.1485 270.83701 277.32599 281.63101 288.03601 292.13101 295.1235 301.5285 308.133"
               y="0"
               sodipodi:role="line"
               id="tspan4010">synch/synchronous functions for complex server operations</tspan></text>
</g><g
           id="g4014"><text
             transform="matrix(1,0,0,-1,56.8,379.4)"
             style="font-variant:normal;font-weight:normal;font-size:11px;font-family:'DejaVu Sans';-inkscape-font-specification:DejaVuSans;writing-mode:lr-tb;fill:#000000;fill-opacity:1;fill-rule:nonzero;stroke:none"
             id="text4018"><tspan
               x="0 6.4899998 9.9770002 20.174 26.961 33.945999 37.432999 44.132 51.117001 58.102001 61.589001 68.486 75.273003 82.258003 85.348999 92.047997 98.549004 109.252 116.039 123.024 127.325 130.812 137.511 144.496 151.481 154.968 161.953 168.65199 174.35001 178.651 181.742 188.63901 195.62399 199.11099 205.612 216.403 219.89 225.588 232.375 236.67599 243.573 250.558 254.254 260.953 267.93799 272.327 279.026 289.729 296.42801 300.729 303.82001 310.51901 317.504 321.28799 324.77499 331.078 334.16901 341.15399 347.655 355.15701 364.64999 368.13699 371.62399 378.323 384.82401 391.61099 395.30701 398.79401 405.49301 411.99399 415.888 419.375 426.07401 433.05899 437.35999 444.147 454.85001 461.54901 465.85001 468.94101 475.64001"
               y="0"
               sodipodi:role="line"
               id="tspan4016">• Web app deployment and hosting vm setup/automation; TinyVM .ova/.ovf automation</tspan></text>
</g><g
           id="g4020"><text
             transform="matrix(1,0,0,-1,56.8,366.6)"
             style="font-variant:normal;font-weight:normal;font-size:11px;font-family:'DejaVu Sans';-inkscape-font-specification:DejaVuSans;writing-mode:lr-tb;fill:#000000;fill-opacity:1;fill-rule:nonzero;stroke:none"
             id="text4024"><tspan
               x="0 6.4899998"
               y="0"
               sodipodi:role="line"
               id="tspan4022">• </tspan></text>
</g><g
           id="g4026"><text
             transform="matrix(1,0,0,-1,66.8,366.6)"
             style="font-variant:normal;font-weight:normal;font-size:10.5px;font-family:'DejaVu Sans';-inkscape-font-specification:DejaVuSans;writing-mode:lr-tb;fill:#000000;fill-opacity:1;fill-rule:nonzero;stroke:none"
             id="text4030"><tspan
               x="0 9.7965002 16.2015 20.5065 26.208 32.612999 39.301498 42.693001 45.496498 52.185001 58.873501 65.278503 71.967003 78.372002 85.060501 91.749001 98.153999 104.8425 108.9375 111.8355 118.125 121.422 127.827 134.5155 141.20399 144.50101 150.90601 156.39751 159.789 166.47749 172.88251 177.1875 181.2825 184.5795 190.9845 194.77499 198.07201 204.47701 207.8685 211.9635 218.4525 224.8575 235.05299 238.4445 242.53951 248.9445 252.2415 257.733 264.33749 270.82651 276.612 279.909 283.60501 290.09399 296.49899 300.59399 307.2825 311.3775 317.7825 323.27399 326.6655 333.0705 339.67499 346.36349 349.755 359.85599 366.345 372.83401 376.92899 380.3205 384.4155 387.31351 397.509 403.99799 406.896 409.79401 416.3985 422.88751"
               y="0"
               sodipodi:role="line"
               id="tspan4028">Worked independently and as part of a team to spec features and meet timelines</tspan></text>
</g><g
           id="g4032"><text
             transform="matrix(1,0,0,-1,56.8,353.8)"
             style="font-variant:normal;font-weight:normal;font-size:11px;font-family:'DejaVu Sans';-inkscape-font-specification:DejaVuSans;writing-mode:lr-tb;fill:#000000;fill-opacity:1;fill-rule:nonzero;stroke:none"
             id="text4036"><tspan
               x="0 6.4899998"
               y="0"
               sodipodi:role="line"
               id="tspan4034">• </tspan></text>
</g><g
           id="g4038"><text
             transform="matrix(1,0,0,-1,66.8,353.8)"
             style="font-variant:normal;font-weight:normal;font-size:10.5px;font-family:'DejaVu Sans';-inkscape-font-specification:DejaVuSans;writing-mode:lr-tb;fill:#000000;fill-opacity:1;fill-rule:nonzero;stroke:none"
             id="text4042"><tspan
               x="0 7.2975001 11.3925 17.8815 24.286501 28.3815 34.786499 41.474998 44.866501 47.669998 54.358501 58.453499 64.942497 69.037498 75.725998 82.130997 85.123497 88.420502 94.8255 101.514 108.2025 111.4995 117.7995 123.9945 128.08949 134.57851 138.67349 145.362 151.767 154.66499 158.0565 161.7525 168.1575 173.94299 176.74651 183.435 190.1235 193.4205 200.10899 206.51401 212.2995 218.98801 229.1835 235.5885 242.27699 246.37199 252.77699 256.87201 259.8645 266.2695"
               y="0"
               sodipodi:role="line"
               id="tspan4040">Created internal and external facing documentation</tspan></text>
</g><g
           id="g4044"><text
             transform="matrix(1,0,0,-1,56.8,332.5)"
             style="font-variant:normal;font-weight:normal;font-size:12px;font-family:'DejaVu Sans';-inkscape-font-specification:DejaVuSans;writing-mode:lr-tb;fill:#000000;fill-opacity:1;fill-rule:nonzero;stroke:none"
             id="text4048"><tspan
               x="0 7.5960002 16.379999 23.483999 30.780001 38.363998 46.751999 50.556 59.556 67.139999 75.335999 80.339996 87.636002 96.720001 100.716 108.912 112.416 120.708 124.212 131.79601 140.784 148.08 151.884 155.388 164.37601 172.76401"
               y="0"
               sodipodi:role="line"
               id="tspan4046">SUTTER HEALTH/VIZIENT INC.</tspan></text>
</g><g
           id="g4050"><text
             transform="matrix(1,0,0,-1,363.308,332.5)"
             style="font-variant:normal;font-weight:normal;font-size:12px;font-family:'DejaVu Sans';-inkscape-font-specification:DejaVuSans;writing-mode:lr-tb;fill:#000000;fill-opacity:1;fill-rule:nonzero;stroke:none"
             id="text4054"><tspan
               x="0 7.8000002 15.096 21.384001 28.775999 35.868 39.167999 42.467999 45.768002 53.16 57.048 60.852001 69.239998 77.435997 85.043999 89.040001 92.844002 103.236 110.532 117.828 121.632 129.228 136.92 140.724 146.724 150.528 154.032 162.81599 171.804 175.608 183.3"
               y="0"
               sodipodi:role="line"
               id="tspan4052">Roseville, CA : MAY 16 – JUN 17</tspan></text>
</g><g
           id="g4056"><text
             transform="matrix(0.96592805,0,-0.25881076,-0.96592805,56.8,318.5)"
             style="font-variant:normal;font-weight:bold;font-size:12.42328548px;font-family:'DejaVu Sans';-inkscape-font-specification:DejaVuSans-Bold;writing-mode:lr-tb;fill:#000000;fill-opacity:1;fill-rule:nonzero;stroke:none"
             id="text4060"><tspan
               x="0 8.9074955 17.491985 26.287672 32.399929 39.754513 44.003277 52.798965 61.793423 66.12915 75.744774 84.540459 92.91375 97.162514 105.23766 112.6792 118.58026 122.91599 133.68698 138.02271 148.35887 156.73218 162.63322 171.00653 179.9016 188.27489 195.62949 204.10216 208.43788 220.76178 229.13509 237.93077 246.30406 255.19913 263.58484"
               y="0"
               sodipodi:role="line"
               id="tspan4058">Sourcing Analyst &amp; Database Manager</tspan></text>
</g><g
           id="g4062"><text
             transform="matrix(1,0,0,-1,56.8,300.4)"
             style="font-variant:normal;font-weight:normal;font-size:10.5px;font-family:'DejaVu Sans';-inkscape-font-specification:DejaVuSans;writing-mode:lr-tb;fill:#000000;fill-opacity:1;fill-rule:nonzero;stroke:none"
             id="text4066"><tspan
               x="0 6.6044998 13.293 17.388 21.483 27.972 32.277 35.668499 43.470001 49.959 56.363998 59.262001 63.356998 70.045502 73.436996 76.334999 81.8265 85.123497 91.528503 98.133003 104.622 108.0135 114.4185 118.1145 121.4115 125.5065 132.19501 138.68401 141.981 148.66949 155.07449 159.16949 162.0675 168.4725 175.161 178.04849 183.53999 186.83701 189.735 196.224 202.629 209.3175 212.2155 218.82001 225.5085 228.89999 235.5885 241.9935 246.0885 249.879 253.575 259.98001 263.58151 267.37201 274.06049 278.15549 284.56049 291.16501 295.26001 298.65149 305.25601 311.745 318.14999 321.048 325.14301 331.83151 337.617 344.022 348.117 354.60599 357.90302 364.59149 370.99649 375.09149 383.68051 390.08551 394.3905 400.4805 405.97198 409.36349 412.66049 415.7475 422.436 425.733 435.9285 442.21799 445.51501 449.60999 456.01501 458.91299 465.40201 468.69901 475.104 480.59549"
               y="0"
               sodipodi:role="line"
               id="tspan4064">Sutter Health is one of the nation's leading not-for-proft healthcare networks. In my role as </tspan></text>
</g><g
           id="g4068"><text
             transform="matrix(1,0,0,-1,56.8,287.7)"
             style="font-variant:normal;font-weight:normal;font-size:10.5px;font-family:'DejaVu Sans';-inkscape-font-specification:DejaVuSans;writing-mode:lr-tb;fill:#000000;fill-opacity:1;fill-rule:nonzero;stroke:none"
             id="text4072"><tspan
               x="0 6.6884999 12.9885 19.677 23.771999 29.557501 32.455502 39.060001 45.748501 49.139999 56.237999 62.926498 69.331497 72.2295 78.4245 83.916 88.105499 91.402496 97.807503 101.997 105.294 109.389 115.9935 122.4825 125.3805 129.7695 133.0665 139.755 146.4435 149.74049 153.43649 159.84151 165.627 168.52499 171.423 174.321 178.416 184.70551 188.0025 191.08949 194.481 200.886 206.283 211.77451 214.6725 220.164 224.259 230.748 237.43649 240.73351 243.6315 250.32001 253.617 260.022 266.71051 273.11551 276.01349 282.2085 287.70001 290.59799 296.08951 299.48099 302.77802 308.2695 314.6745 317.57251 324.26099 328.35599 331.254 337.659 344.3475 347.6445 354.33301 360.73801 366.22949 369.1275 375.81601 382.50449 385.80151 389.19299 395.79749 402.2865 408.48151 414.97049 417.8685 424.2735 430.96201 441.06299 447.552 454.24051 458.33551 461.72699 469.91699"
               y="0"
               sodipodi:role="line"
               id="tspan4070">Sourcing Analyst at their S3 facility I assisted in analysis, solution design, development &amp; </tspan></text>
</g><g
           id="g4074"><text
             transform="matrix(1,0,0,-1,56.8,275)"
             style="font-variant:normal;font-weight:normal;font-size:10.5px;font-family:'DejaVu Sans';-inkscape-font-specification:DejaVuSans;writing-mode:lr-tb;fill:#000000;fill-opacity:1;fill-rule:nonzero;stroke:none"
             id="text4078"><tspan
               x="0 6.6884999 12.9885 18.774 25.4625 35.658001 42.063 48.751499 52.8465 59.335499 63.4305 66.328499 72.733498 79.421997 82.813499 89.218498 94.709999 98.007004 106.512 113.001 115.899 118.8915 122.1885 128.59351 134.08501 137.4765 141.47701 147.966 153.4575 157.55251 160.4505 167.13901 173.8275 177.1245 185.3145 188.6115 192.7065 197.0955 203.5005 206.3985 213.08701 215.985 222.58949 229.278 232.66949 235.96651 239.0535 242.35049 248.136 252.231 258.72 265.125 269.22 275.625 282.31351 285.70499 291.10199 297.591 303.78601 310.27499 314.57999 320.98499 323.883 327.27451 333.6795 340.36801 344.46301 350.86801 361.06351 367.46851 371.65799 374.556 380.961 387.64951 390.9465 395.0415 401.53049 407.93549 410.8335 416.32501 419.62201 422.51999 429.2085 434.99399 437.892 444.49649 451.185 454.08301 460.77151 467.45999 470.75699 477.94949 485.1525 492.345"
               y="0"
               sodipodi:role="line"
               id="tspan4076">documentation as well as testing &amp; training. I created several automation tools including VBA/</tspan></text>
</g><g
           id="g4080"><text
             transform="matrix(1,0,0,-1,56.8,262.3)"
             style="font-variant:normal;font-weight:normal;font-size:10.5px;font-family:'DejaVu Sans';-inkscape-font-specification:DejaVuSans;writing-mode:lr-tb;fill:#000000;fill-opacity:1;fill-rule:nonzero;stroke:none"
             id="text4084"><tspan
               x="0 6.6044998 13.293 16.379999 23.068501 26.365499 33.054001 37.148998 43.554001 49.255501 55.744499 61.236 66.633003 73.122002 78.613503 81.9105 86.005501 92.494499 95.791496 102.48 106.575 112.98 115.878 122.283 128.0685 132.258 135.55499 139.64999 146.2545 152.7435 156.13499 159.7365 166.425 170.52 177.2085 181.209 187.698 191.08949 196.58099 202.98599 209.181 212.07899 218.6835 225.37199 230.86349 234.36 237.258 243.66299 249.1545 255.64349 261.13501 264.43201 270.83701 274.6275 277.9245 284.52899 291.01801 299.60699 302.90399 308.68951 315.09451 321.78299 325.87799 330.18301 336.58801 342.3735 346.46851 351.95999 355.3515 362.04001 368.34 373.83151 380.3205 387.009 390.306 396.711 403.39951 406.6965 413.38501 416.28299 421.77451 425.86951 432.27451 436.5795 439.47751 445.263 451.668 454.66049 457.95749 464.646 471.05099 475.146 481.63501"
               y="0"
               sodipodi:role="line"
               id="tspan4082">SSIS processes to project the future savings/loses of new contracts based on historical data </tspan></text>
</g><g
           id="g4086"><text
             transform="matrix(1,0,0,-1,56.8,249.6)"
             style="font-variant:normal;font-weight:normal;font-size:10.5px;font-family:'DejaVu Sans';-inkscape-font-specification:DejaVuSans;writing-mode:lr-tb;fill:#000000;fill-opacity:1;fill-rule:nonzero;stroke:none"
             id="text4090"><tspan
               x="0 6.4050002 13.0095 19.698 23.0895 29.494499 36.182999 39.48 45.884998 49.98 56.668499 63.073502 69.762001 72.660004 78.162003 84.651001 88.746002 91.643997 98.049004 104.7375 108.528 117.117 120.015 126.6195 133.10851 136.5 142.28551 148.58549 155.274 159.369 163.674 170.07899 175.8645 180.054 183.55051 190.239 194.334 200.739 207.34351 214.032 219.8175 223.91251 227.304 233.00549 237.10049 243.50549 248.99699 254.48849 258.27899 266.86801 273.27301 276.17099 282.26099 285.55801 289.65302 296.142 302.547 305.44501 308.83649 312.5325 318.9375 323.24249 326.53949 333.228 336.12601 341.61749 345.71249 350.01749 352.9155 359.604 366.29251 370.38751 373.28549 379.69049 386.379 389.67599 395.46149 401.86649 408.55499 414.75 421.23901 425.439 430.93051 433.82849 440.23349 446.922"
               y="0"
               sodipodi:role="line"
               id="tspan4088">and an organization-wide contract/product cross-walk tool for distribution conversion.</tspan></text>
</g><g
           id="g4092"><text
             transform="matrix(1,0,0,-1,56.8,234.7)"
             style="font-variant:normal;font-weight:normal;font-size:10.5px;font-family:'DejaVu Sans';-inkscape-font-specification:DejaVuSans;writing-mode:lr-tb;fill:#000000;fill-opacity:1;fill-rule:nonzero;stroke:none"
             id="text4096"><tspan
               x="0 6.1845002 9.4814997 15.582 19.677 26.082001 32.7705 35.668499 42.157501 52.353001 56.143501 61.634998 68.040001 70.938004 77.133003 83.622002 87.821999 91.213501 98.511002 104.916 111.5205 117.012 121.107 127.512 134.2005 138.2955 141.28799 147.483 150.78 153.67799 160.16701 166.57201 170.66701 177.3555 180.74699 184.44299 188.53799 194.94299 205.1385 208.53 214.935 219.03 225.63451 232.1235 236.4285 241.92 245.217 251.62199 258.31049 264.99899 268.29599 271.194 277.88251 284.487 290.97601 297.66449 304.06949 310.758 317.4465 323.8515 330.54001 334.63501 337.53299"
               y="0"
               sodipodi:role="line"
               id="tspan4094">• Problem-solve! Constantly learn from others and independently</tspan></text>
</g><g
           id="g4098"><text
             transform="matrix(1,0,0,-1,56.8,222.5)"
             style="font-variant:normal;font-weight:normal;font-size:10.5px;font-family:'DejaVu Sans';-inkscape-font-specification:DejaVuSans;writing-mode:lr-tb;fill:#000000;fill-opacity:1;fill-rule:nonzero;stroke:none"
             id="text4102"><tspan
               x="0 6.1845002 9.4814997 17.5665 24.0555 30.156 36.645 39.542999 45.948002 52.636501 56.028 59.325001 69.5205 75.925499 78.823502 85.512001 89.7015 96.106499 99.004501 105.693 108.99 115.395 122.0835 128.772 132.069 138.474 145.16251 151.851 154.74899 158.84399 162.2355 168.84 175.245 181.1355 184.4325 191.037 195.132 201.537 207.32249 213.81149 219.2085 224.7 231.189 236.6805 239.97749 246.38251 253.071 259.75949 263.05649 268.84201 275.24701 281.93549 285.936 292.42499 299.11349 303.2085 306.60001 313.005 316.70099 319.99799 329.091 335.496 340.98749 345.08249 351.5715 355.8765 359.17349 366.47101 372.87601 379.56451 383.65948 387.96451 394.36951 400.155 404.34451 407.64151 415.7265 422.1315 426.2265 432.6315 439.32001 445.72501 451.21649"
               y="0"
               sodipodi:role="line"
               id="tspan4100">• Develop, maintain and audit ETL processes and content of Master Contract Database</tspan></text>
</g><g
           id="g4104"><text
             transform="matrix(1,0,0,-1,56.8,210.2)"
             style="font-variant:normal;font-weight:normal;font-size:10.5px;font-family:'DejaVu Sans';-inkscape-font-specification:DejaVuSans;writing-mode:lr-tb;fill:#000000;fill-opacity:1;fill-rule:nonzero;stroke:none"
             id="text4108"><tspan
               x="0 6.1845002 9.4814997 16.674 23.362499 29.7675 32.665501 38.8605 44.352001 47.25 52.741501 56.038502 62.443501 69.132004 75.820503 79.1175 82.015503 88.704002 92.799004 99.288002 103.488 110.1765 114.2715 120.7605 124.8555 131.2605 135.3555 138.25349 144.65849 151.452 154.74899 161.15401 164.85001 168.2415 174.02699 176.925 179.7285 186.2175 192.90601 197.00101 200.298 205.78951 212.394 219.0825 225.771 228.66901 234.864 238.25549 243.957 250.64549 257.05051 259.94849 266.63699 270.0285 276.71701 283.12201 287.21701 293.62201 297.01349 300.7095 307.1145 311.41949 314.71649 320.20801 326.61301 333.30151 337.302 343.08749 345.9855 352.67401 359.36249 362.65948 366.75449 373.2435 379.6485 389.84399 395.33551"
               y="0"
               sodipodi:role="line"
               id="tspan4106">• Analysis and interpretation of client supply chain data for sourcing teams:</tspan></text>
</g><g
           id="g4110"><text
             transform="matrix(1,0,0,-1,73.597,198)"
             style="font-variant:normal;font-weight:normal;font-size:10.5px;font-family:'DejaVu Sans';-inkscape-font-specification:DejaVuSans;writing-mode:lr-tb;fill:#000000;fill-opacity:1;fill-rule:nonzero;stroke:none"
             id="text4114"><tspan
               x="0 6.3000002 12.9885 19.393499 23.5935 33.789001 40.194 45.9795 52.1745 55.566002 58.862999 65.551498 72.239998 76.240501 82.929001 85.827003 91.612503 98.017502 101.01 104.307 110.9955 117.4845 121.7895 127.9845 130.88251 136.584 143.073 148.5645 151.8615 155.25301 164.2515 170.74049 177.429 180.327 186.1125 192.5175 195.4155 198.912 205.60049 212.289 216.384 223.07249 225.9705 231.756 238.161 241.05901 244.4505 247.7475 250.8345 257.52301 261.21899 267.62399 271.71899 281.91449 288.31949 292.509 295.40701 301.81201 308.50049 311.79749 318.48599 324.97501 329.28 335.47501 338.37299 344.07449 350.56351 356.05499 359.35199 362.7435 370.629 376.92899 383.61749 387.40799 394.70551 397.60349 400.5015 407.19 410.08801 415.8735 422.2785 425.271 428.56799"
               y="0"
               sodipodi:role="line"
               id="tspan4112">Pharmacy, Surgical Services, Medical/Surgical, Information Services, Non-Clinical, </tspan></text>
</g><g
           id="g4116"><text
             transform="matrix(1,0,0,-1,72.4885,185.7)"
             style="font-variant:normal;font-weight:normal;font-size:10.5px;font-family:'DejaVu Sans';-inkscape-font-specification:DejaVuSans;writing-mode:lr-tb;fill:#000000;fill-opacity:1;fill-rule:nonzero;stroke:none"
             id="text4120"><tspan
               x="0 5.796 12.201 18.8895 25.2945 29.599501 36.088501 40.183498 46.588501 50.893501 57.182999 60.48 63.777 71.168999 77.573997 84.262497 87.1605 91.255501 97.6605 100.653 103.95 107.247 114.639 121.044 125.139 131.8275 134.72549 141.13049 144.0285 150.4335 157.12199 163.4115 166.7085 170.10001 178.30051 182.6055 186.7005 193.38901 199.79401 206.4825 212.8875 219.576 222.474 228.25951 233.75101 237.048 245.23801 248.6295 251.71651 261.91199 268.31699 275.00549 277.9035 284.508"
               y="0"
               sodipodi:role="line"
               id="tspan4118">Laboratory, Capital, Cardiology, Orthopedics &amp; Imaging</tspan></text>
</g><g
           id="g4122"><text
             transform="matrix(1,0,0,-1,56.8,173.5)"
             style="font-variant:normal;font-weight:normal;font-size:10.5px;font-family:'DejaVu Sans';-inkscape-font-specification:DejaVuSans;writing-mode:lr-tb;fill:#000000;fill-opacity:1;fill-rule:nonzero;stroke:none"
             id="text4126"><tspan
               x="0 6.1845002 9.4814997 15.582 19.677 26.166 32.8545 39.259499 43.259998 49.749001 53.140499 56.038502 66.234001 76.429497 82.918503 89.607002 92.504997 98.910004 103.005 109.494 112.392 118.587 121.9785 128.3835 134.16901 138.26401 141.162 147.567 154.25549 160.66051 167.349 170.24699 176.73599 180.033 186.7215 193.1265 198.912 201.81 207.3015 210.19949 216.60451 223.293 226.59 230.685 237.174 243.8625 250.2675 254.57249 258.66751"
               y="0"
               sodipodi:role="line"
               id="tspan4124">• Prepare immediately actionable decision reports</tspan></text>
</g><g
           id="g4128"><text
             transform="matrix(1,0,0,-1,56.8,161.2)"
             style="font-variant:normal;font-weight:normal;font-size:10.5px;font-family:'DejaVu Sans';-inkscape-font-specification:DejaVuSans;writing-mode:lr-tb;fill:#000000;fill-opacity:1;fill-rule:nonzero;stroke:none"
             id="text4132"><tspan
               x="0 6.1845002 9.4814997 15.582 19.677 26.082001 32.371498 35.269501 41.874001 48.362999 51.754501 57.540001 63.84 70.528503 74.623497 80.9235 87.1185 91.307999 94.605003 102.795 106.092 111.5835 117.369 123.774 130.37849 136.86749 140.259 146.664 150.36 153.657 159.85201 166.257 169.155 175.84351 182.3325 185.724 189.42 195.825 200.13 203.427 207.123 213.81149 217.90649 224.595 228.5955 235.0845 238.476 246.5715 249.963 256.36801 262.9725 269.66101 276.06601 278.96399 285.6525 292.341 295.638 301.12949 307.53448 314.22299 318.31799 324.10349 326.90701 333.59549 340.284 343.58099 349.98599 356.6745 363.36301 369.76801 374.073 378.168 384.85651 391.54501 394.44299 398.53799 401.436 407.841 413.33249"
               y="0"
               sodipodi:role="line"
               id="tspan4130">• Provide context &amp; scope of value for future &amp; ongoing sourcing opportunities </tspan></text>
</g><g
           id="g4134"><text
             transform="matrix(1,0,0,-1,56.8,149)"
             style="font-variant:normal;font-weight:normal;font-size:10.5px;font-family:'DejaVu Sans';-inkscape-font-specification:DejaVuSans;writing-mode:lr-tb;fill:#000000;fill-opacity:1;fill-rule:nonzero;stroke:none"
             id="text4138"><tspan
               x="0 6.1845002 9.4814997 16.674 23.362499 27.4575 33.862499 44.057999 50.463001 54.557999 61.047001 67.735497 71.032501 77.4375 84.125999 90.814499 94.111504 100.5165 107.205 110.9955 117.684 124.089 129.8745 133.17149 139.86 146.46449 152.95351 157.2585 160.15649 166.64549"
               y="0"
               sodipodi:role="line"
               id="tspan4136">• Automated and ad-hoc queries</tspan></text>
</g><g
           id="g4140"><text
             transform="matrix(1,0,0,-1,56.8,136.7)"
             style="font-variant:normal;font-weight:normal;font-size:10.5px;font-family:'DejaVu Sans';-inkscape-font-specification:DejaVuSans;writing-mode:lr-tb;fill:#000000;fill-opacity:1;fill-rule:nonzero;stroke:none"
             id="text4144"><tspan
               x="0 6.1845002 9.4814997 17.5665 23.9715 29.757 36.445499 46.546501 53.0355 59.723999 63.819 70.223999 74.319 77.311501 83.716499 90.404999 93.702003 100.107 106.7955 113.484 116.781 122.976 129.381 132.27901 138.9675 145.4565 148.75349 154.539 160.944 167.63251 171.72749 178.416 182.72099 185.619 192.2235 198.912 202.3035 208.7085 212.4045 215.70151 222.39 226.485 232.89 238.67551 245.08051 250.57201 255.96899 262.45801 267.94949 271.341 279.43649 282.828 289.4325 295.92151 301.707 304.60501 310.0965 312.99451 319.39951 326.08801 329.38501 333.48001 339.88501 345.3765 352.065 354.96301 359.05801"
               y="0"
               sodipodi:role="line"
               id="tspan4142">• Documentation and value capturing of processes &amp; decision results</tspan></text>
</g><g
           id="g4146"><text
             transform="matrix(1,0,0,-1,56.8,118)"
             style="font-variant:normal;font-weight:bold;font-size:12px;font-family:'DejaVu Sans';-inkscape-font-specification:DejaVuSans-Bold;writing-mode:lr-tb;fill:#000000;fill-opacity:1;fill-rule:nonzero;stroke:none"
             id="text4150"><tspan
               x="0 8.1000004 18.084 27.780001 36.576 44.976002 53.16 57.647999 67.848 77.844002"
               y="0"
               sodipodi:role="line"
               id="tspan4148">EDUCATION </tspan></text>
</g><g
           id="g4152"
           transform="translate(56.8,118)"><path
             d="M 0,-1.2 H 495.4"
             style="fill:none;stroke:#000000;stroke-width:0.69999999;stroke-linecap:butt;stroke-linejoin:miter;stroke-miterlimit:10;stroke-dasharray:none;stroke-opacity:1"
             id="path4154"
             inkscape:connector-curvature="0" /></g><g
           id="g4156"><text
             transform="matrix(1,0,0,-1,56.8,101.4)"
             style="font-variant:normal;font-weight:normal;font-size:12px;font-family:'DejaVu Sans';-inkscape-font-specification:DejaVuSans;writing-mode:lr-tb;fill:#000000;fill-opacity:1;fill-rule:nonzero;stroke:none"
             id="text4160"><tspan
               x="0 8.6999998 17.688 21.191999 29.388 37.080002 45.383999 52.98 56.568001 63.863998 71.160004 75.047997 84.444 91.344002 95.148003 103.536 111.732 118.416 121.92 128.82001 138.312 146.616 155.604 159.108 167.304 171.108 180.20399 187.608 195.804 199.308 207"
               y="0"
               sodipodi:role="line"
               id="tspan4158">UNIVERSITY OF CALIFORNIA DAVIS </tspan></text>
</g><g
           id="g4162"><text
             transform="matrix(1,0,0,-1,452.104,101.4)"
             style="font-variant:normal;font-weight:normal;font-size:12px;font-family:'DejaVu Sans';-inkscape-font-specification:DejaVuSans;writing-mode:lr-tb;fill:#000000;fill-opacity:1;fill-rule:nonzero;stroke:none"
             id="text4166"><tspan
               x="0 8.3039999 15.288 23.483999 31.08 38.771999 42.576 51.972 58.872002 62.675999 66.18 74.963997 83.952003 87.839996 95.435997"
               y="0"
               sodipodi:role="line"
               id="tspan4164">CLASS OF JUN 14</tspan></text>
</g><g
           id="g4168"><text
             transform="matrix(0.96592805,0,-0.25881076,-0.96592805,56.8,87.4)"
             style="font-variant:normal;font-weight:bold;font-size:12.42328548px;font-family:'DejaVu Sans';-inkscape-font-specification:DejaVuSans-Bold;writing-mode:lr-tb;fill:#000000;fill-opacity:1;fill-rule:nonzero;stroke:none"
             id="text4172"><tspan
               x="0 9.4168501 17.790146 25.14473 34.039803 42.425522 46.674286 55.258774 61.371033 65.706757 74.191864 79.571144 83.906868 92.814369 100.16895 104.50468 112.8904 121.68608 129.12762 137.51335 142.25905 146.59477 156.12343 165.01851 173.91357 178.16234 182.49806 190.88379 199.77885 204.11458 216.43848 224.81178 230.71283 239.60791 247.99362 260.92627 269.29956 275.20062 279.4494 286.89093 294.24551 298.58124 304.2587 313.35254 322.14822 326.39697 330.7327 339.2178 346.57239 355.0575 364.05197 372.84766 380.92279 385.25851 397.5824 401.91812 410.71384 419.19891 425.31119"
               y="0"
               sodipodi:role="line"
               id="tspan4170">Bachelor of Science, Applied Mathematics (Philosophy Minor)</tspan></text>
</g><g
           id="g4174"><text
             transform="matrix(1,0,0,-1,56.8,71.9)"
             style="font-variant:normal;font-weight:normal;font-size:10.5px;font-family:'DejaVu Sans';-inkscape-font-specification:DejaVuSans;writing-mode:lr-tb;fill:#000000;fill-opacity:1;fill-rule:nonzero;stroke:none"
             id="text4178"><tspan
               x="0 6.1845002 9.4814997 16.778999 23.184 33.473999 43.669498 50.273998 56.962502 59.8605 65.646004 72.051003 76.146004 79.138496 85.543503 92.232002 95.528999 101.934 105.63 109.0215 113.1165 119.721 126.21 129.6015 136.20599 140.511 143.409 150.0975 155.883 158.78101 165.4695 171.8745 174.77251 180.26401 183.561 186.9525 192.73801 199.03799 205.7265 211.51199 217.91701 224.6055 228.7005 234.192 237.5835 245.7735 249.0705 253.071 259.56 265.05151 271.73999 274.638 278.733 284.22449 287.52151 293.92651 297.6225 301.01401 307.41901 314.0235 319.51501 323.60999 327.99899 334.40399 340.18951 344.28448 347.58151 351.67651 358.1655 364.5705 370.06201 376.46701 383.15549 385.95901 392.64749 399.336 402.633 406.02451 409.62601 416.31451 423.00299 428.78851 432.88351 435.78149 442.18649 448.875 455.28 458.17801"
               y="0"
               sodipodi:role="line"
               id="tspan4176">• Communication of the principals, concepts &amp; results of abstract reasoning, functional </tspan></text>
</g><g
           id="g4180"><text
             transform="matrix(1,0,0,-1,65.2,59.2)"
             style="font-variant:normal;font-weight:normal;font-size:10.5px;font-family:'DejaVu Sans';-inkscape-font-specification:DejaVuSans;writing-mode:lr-tb;fill:#000000;fill-opacity:1;fill-rule:nonzero;stroke:none"
             id="text4184"><tspan
               x="0 6.4050002 13.0935 19.498501 22.3965 28.591499 34.083 36.980999 42.4725 45.863998 49.160999 59.356499 65.761497 69.856499 76.544998 83.033997 93.2295 99.634499 103.824 106.722 112.5075 118.9125 121.8105 125.202 131.60699 134.505 141.1935 147.5985 151.9035 154.8015 158.8965 165.58501 175.7805 181.272 184.76849 195.0585 201.4635 208.06799 214.55701 217.455 220.353 227.0415 233.73 237.02699 243.43201 250.1205 256.80899 260.10599 266.79449 273.19949 277.29449 283.69949 287.5845 294.189 298.284 304.689 310.47449 316.87949 322.371 327.86249 330.7605 337.44901 344.13751 347.43451 350.33249 356.73749 363.42599 366.32401"
               y="0"
               sodipodi:role="line"
               id="tspan4182">analysis, mathematical algorithms/modeling and data-processing logic</tspan></text>
</g></g></g></g></svg>